<svg y="0px" x="0px" viewBox="23.25 23.75 53 53" data-name="Layer 1" xmlns="http://www.w3.org/2000/svg" style="max-height: 500px" width="53" height="53"><path d="M50,40.28a9.75,9.75,0,0,1,9.46,7.48H74.9a25,25,0,0,0-49.8,0H40.54A9.75,9.75,0,0,1,50,40.28Z"/><path d="M50,59.72a9.74,9.74,0,0,1-9.46-7.48H25.1a25,25,0,0,0,49.8,0H59.46A9.74,9.74,0,0,1,50,59.72Z"/><path d="M44.76,50A5.24,5.24,0,1,0,50,44.76,5.25,5.25,0,0,0,44.76,50Z"/><text font-family="'Helvetica Neue', Helvetica, Arial-Unicode, Arial, Sans-serif" font-weight="bold" font-size="5px" fill="#000000" y="115" x="0">Created by hibernut</text><text font-family="'Helvetica Neue', Helvetica, Arial-Unicode, Arial, Sans-serif" font-weight="bold" font-size="5px" fill="#000000" y="120" x="0">from the Noun Project</text></svg>