<svg viewBox="0.9459459459459465 29.419999999999995 98.10810810810811 41.31" version="1.1" xmlns="http://www.w3.org/2000/svg" style="max-height: 500px" width="98.10810810810811" height="41.31">
 <path fill-rule="evenodd" d="m9.0156 31.281h81.965c3.1953 0 5.8164 2.6211 5.8164 5.8164v25.805c0 2.6133-1.707 4.0664-1.707 4.1094-1.0547 1.0547-2.5078 1.707-4.1094 1.707h-81.965c-3.2031 0-5.8164-2.6133-5.8164-5.8164v-25.805c0-1.6016 0.65234-3.0586 1.707-4.1094 0.042969 0 1.4961-1.707 4.1094-1.707zm74.961 21.598v12h7.0078c0.53906 0 1.0352-0.22266 1.3945-0.58203l0.003906 0.003906c0.35547-0.35938 0.57813-0.85547 0.57813-1.3984v-25.805c0-1.0938-0.88672-1.9766-1.9766-1.9766h-81.969c-0.54688 0-1.0391 0.22266-1.3984 0.57812l0.003906 0.003906c-0.35938 0.35938-0.58203 0.85156-0.58203 1.3945v25.805c0 1.082 0.89453 1.9766 1.9766 1.9766h7.0078v-7.9219h3.8398v7.9219h8.9844v-12h3.8398v12h8.9844v-7.9219h3.8398v7.9219h8.9844v-12h3.8398v12h8.9844v-7.9219h3.8398v7.9219h8.9844v-12l3.832 0.003906z"/>
<text fill="#000000" font-family="Arbeit Regular, Helvetica, Arial-Unicode, Arial, Sans-serif" font-weight="bold" font-size="5.0" y="117.5" x="0.0">Created by Good Women</text><text fill="#000000" font-family="Arbeit Regular, Helvetica, Arial-Unicode, Arial, Sans-serif" font-weight="bold" font-size="5.0" y="122.5" x="0.0">from Noun Project</text></svg>