<svg viewBox="4.25 16.5 91.5 67" y="0px" x="0px" version="1.1" xmlns="http://www.w3.org/2000/svg" style="max-height: 500px" width="91.5" height="67"><g transform="translate(0,-952.36218)"><path overflow="visible" display="inline" visibility="visible" stroke="none" fill-rule="evenodd" fill-opacity="1" fill="#000000" d="M 31.938251,970.37349 C 22.968015,970.5873 14.313488,975.395 9.5310866,983.81592 a 2.0001999,2.0001999 0 0 0 -0.0035,0.003 c -7.2832713,12.86819 -2.944492,29.30318 9.6930674,36.76398 a 2.0001999,2.0001999 0 0 0 0.0067,0 c 12.104646,7.0795 27.446811,3.346 35.189645,-8.1595 l 36.553464,21.6462 a 2.0001999,2.0001999 0 1 0 2.037401,-3.4425 l -36.626778,-21.6848 c 5.972244,-12.54443 1.481457,-27.89117 -10.597677,-34.98009 a 2.0001999,2.0001999 0 0 0 -0.0035,-0.002 c -4.360082,-2.54995 -9.145673,-3.69849 -13.844452,-3.58649 z m 0.07087,3.97183 c 3.979842,-0.089 8.037991,0.89467 11.751377,3.06607 0,4.2e-4 0.0035,6.7e-4 0.0035,10e-4 10.680944,6.26985 14.404251,20.13254 8.369999,31.05821 a 2.0001999,2.0001999 0 0 0 -0.314645,0.589 0,0 0 0 0 0,0 c -6.346772,10.725 -19.86059,14.3308 -30.562086,8.0765 -0.0035,0 -0.0046,0 -0.0067,0 -10.764558,-6.3596 -14.4673144,-20.33766 -8.239243,-31.34377 0,-7e-4 0,-10e-4 0,-0.002 4.086141,-7.19326 11.399881,-11.27384 18.998858,-11.44377 z" style="text-indent:0;text-transform:none;direction:ltr;block-progression:tb;baseline-shift:baseline;color:#000000;enable-background:accumulate;"/></g><text font-family="'Helvetica Neue', Helvetica, Arial-Unicode, Arial, Sans-serif" font-weight="bold" font-size="5px" fill="#000000" y="115" x="0">Created by Royyan Razka</text><text font-family="'Helvetica Neue', Helvetica, Arial-Unicode, Arial, Sans-serif" font-weight="bold" font-size="5px" fill="#000000" y="120" x="0">from the Noun Project</text></svg>