<svg viewBox="3.648648648648649 4.309999999999999 92.97297297297297 92.07000000000001" version="1.1" xmlns="http://www.w3.org/2000/svg" style="max-height: 500px" width="92.97297297297297" height="92.07000000000001">
 <path d="m19.719 37.535-12.922 43.664c-0.73047 3.0508-0.03125 6.2148 1.9141 8.6758 1.9414 2.4609 4.8555 3.875 7.9961 3.875h66.582c3.1406 0 6.0547-1.4141 8-3.875 1.9453-2.4609 2.6445-5.625 1.8711-8.8359l-12.836-43.344c-1.1016-4.6094-5.1758-7.8281-9.9141-7.8281h-8.3125c1.7656-2.4531 2.8359-5.4375 2.8359-8.6836 0-8.2344-6.6953-14.934-14.934-14.934s-14.934 6.6992-14.934 14.934c0 3.2461 1.0664 6.2305 2.8359 8.6836h-8.3164c-4.7344 0-8.8086 3.2188-9.8672 7.668zm54.57 1.7734 12.836 43.34c0.28125 1.1797 0.011719 2.4023-0.73828 3.3555-0.75391 0.94922-1.8789 1.4961-3.0938 1.4961h-66.586c-1.2148 0-2.3398-0.54688-3.0938-1.5-0.75-0.94922-1.0195-2.1758-0.78125-3.1914l12.922-43.66c0.42578-1.7852 2-3.0312 3.832-3.0312h40.828c1.832 0 3.4062 1.2461 3.875 3.1914zm-32.973-18.125c0-4.7891 3.8945-8.6836 8.6836-8.6836s8.6836 3.8945 8.6836 8.6836c0 4.7891-3.8945 8.6836-8.6836 8.6836s-8.6836-3.8945-8.6836-8.6836z"/>
 <path d="m50.062 18.059h-0.03125c-1.7227 0-3.1094 1.3984-3.1094 3.125 0 1.7266 1.4141 3.125 3.1406 3.125s3.125-1.3984 3.125-3.125c0-1.7266-1.3984-3.125-3.125-3.125z"/>
<text fill="#000000" font-family="Arbeit Regular, Helvetica, Arial-Unicode, Arial, Sans-serif" font-weight="bold" font-size="5.0" y="117.5" x="0.0">Created by Riyan Resdian</text><text fill="#000000" font-family="Arbeit Regular, Helvetica, Arial-Unicode, Arial, Sans-serif" font-weight="bold" font-size="5.0" y="122.5" x="0.0">from Noun Project</text></svg>